<mxfile host="app.diagrams.net" modified="2023-05-27T16:39:47.524Z" agent="Mozilla/5.0 (Windows NT 10.0; Win64; x64; rv:109.0) Gecko/20100101 Firefox/113.0" version="21.3.4" etag="ZgMCm6cmMjzxsMlNbsWJ" type="github">
  <diagram name="Page-1" id="9CtHIvkG42J3az2eYCfE">
    <mxGraphModel>
      <root>
        <mxCell id="0" />
        <mxCell id="1" parent="0" />
      </root>
    </mxGraphModel>
  </diagram>
</mxfile>
